<svg xmlns="http://www.w3.org/2000/svg" width="16" height="19" viewBox="0 0 16 19">
    <path fill="#BCDFFC" fill-rule="evenodd" d="M14.164 16.969h1.585v1.658h-1.585c-1.08 0-2.125-.27-3.133-.81a6.882 6.882 0 0 1-3.17.771 6.663 6.663 0 0 1-3.133-.771c-1.032.54-2.076.81-3.133.81H.011v-1.658h1.584c1.106 0 2.15-.36 3.133-1.08.959.694 2.01 1.04 3.152 1.04 1.143 0 2.193-.346 3.151-1.04.983.72 2.028 1.08 3.133 1.08zM1.56 15.31L.047 9.833a.875.875 0 0 1 .037-.655.676.676 0 0 1 .48-.386l1.031-.347V4.627c0-.463.154-.855.461-1.177.307-.321.67-.482 1.088-.482h2.359V.5h4.717v2.468h2.36c.442 0 .816.161 1.124.482.307.322.46.714.46 1.177v3.818l.996.347c.22.052.38.18.479.386.098.205.11.424.037.655L14.2 15.31h-.037c-1.18 0-2.223-.54-3.133-1.62-.933 1.08-1.99 1.62-3.17 1.62-1.179 0-2.223-.54-3.133-1.62-.909 1.08-1.953 1.62-3.133 1.62H1.56zM3.144 4.627v3.278l4.717-1.62 4.718 1.62V4.627H3.144z"/>
</svg>
