<svg xmlns="http://www.w3.org/2000/svg" width="22" height="21" viewBox="0 0 22 21">
    <g fill="none" fill-rule="evenodd">
        <path d="M-1-2h24v24H-1z"/>
        <path fill="#FC914A" fill-rule="nonzero" d="M21.7 10.3l-1.8-1.8-1-7.7c0-.4-.4-.8-.9-.8H4c-.5 0-.9.4-1 .9L2 8.6.2 10.4c-.1.1-.2.3-.2.6v6c0 .6.4 1 1 1h1v2c0 .6.4 1 1 1h3c.6 0 1-.4 1-1v-2h8v2c0 .6.4 1 1 1h3c.6 0 1-.4 1-1v-2h1c.6 0 1-.4 1-1v-6c0-.3-.1-.5-.3-.7zM4.9 2h12.2l.8 6H4.1l.8-6zM7 14H5c-.6 0-1-.4-1-1s.4-1 1-1h2c.6 0 1 .4 1 1s-.4 1-1 1zm10 0h-2c-.6 0-1-.4-1-1s.4-1 1-1h2c.6 0 1 .4 1 1s-.4 1-1 1z"/>
    </g>
</svg>
