<svg xmlns="http://www.w3.org/2000/svg" width="16" height="16" viewBox="0 0 16 16">
    <path fill="#BCDFFC" fill-rule="evenodd" d="M14.167 1.424L16 7.054v7.522c0 .235-.09.447-.27.638-.181.19-.383.286-.605.286h-.917c-.222 0-.423-.095-.604-.286a.906.906 0 0 1-.27-.638v-.967H2.666v.967c0 .235-.09.447-.271.638-.18.19-.382.286-.604.286H.875c-.222 0-.424-.095-.604-.286A.906.906 0 0 1 0 14.576V7.054l1.833-5.63C2.056.808 2.486.5 3.125.5h9.75c.639 0 1.07.308 1.292.924zm-11.063 9.37c.375 0 .695-.133.959-.397.263-.264.395-.593.395-.99 0-.395-.132-.733-.395-1.011a1.272 1.272 0 0 0-.959-.418c-.375 0-.687.14-.937.418-.25.278-.375.616-.375 1.012s.125.725.375.99c.25.263.562.395.937.395zm9.792 0c.375 0 .687-.133.937-.397s.375-.593.375-.99c0-.395-.125-.733-.375-1.011a1.207 1.207 0 0 0-.937-.418c-.375 0-.695.14-.959.418a1.418 1.418 0 0 0-.395 1.012c0 .396.132.725.395.99.264.263.584.395.959.395zM1.792 6.13h12.416l-1.333-4.222h-9.75L1.792 6.13z"/>
</svg>
